<svg width="24" height="24" viewBox="0 0 24 24" fill="none" xmlns="http://www.w3.org/2000/svg">
<path d="M21 5.31967V18.3297C21 18.6597 20.6801 18.8898 20.3501 18.7998C17.9661 18.1208 15.573 18.1177 13.187 19.3077C12.986 19.4077 12.749 19.2717 12.749 19.0467V5.85276C12.749 5.78576 12.7701 5.71877 12.8091 5.66477C13.4321 4.80977 14.396 4.21471 15.519 4.07871C17.331 3.85871 19.0731 4.07879 20.7141 4.86179C20.8891 4.94479 21 5.12667 21 5.31967ZM8.47998 4.07968C6.66798 3.85968 4.92591 4.07976 3.28491 4.86276C3.11091 4.94576 3 5.12777 3 5.32077V18.3308C3 18.6608 3.3199 18.8908 3.6499 18.8008C6.0339 18.1218 8.42699 18.1187 10.813 19.3087C11.014 19.4087 11.251 19.2727 11.251 19.0477V5.85373C11.251 5.78673 11.2299 5.71974 11.1909 5.66574C10.5669 4.81074 9.60398 4.21568 8.47998 4.07968Z" fill="#F50DB4"/>
</svg>
